<svg width="32" height="32" viewBox="0 0 32 32" fill="none" xmlns="http://www.w3.org/2000/svg">
<path opacity="0.3" fill-rule="evenodd" clip-rule="evenodd" d="M16 7C10.5584 7 5.82463 10.0225 3.39008 14.4741C2.86998 15.4251 2.86997 16.5747 3.39005 17.5257C5.82457 21.9774 10.5584 25 16 25C21.4416 25 26.1754 21.9775 28.6099 17.5259C29.13 16.5749 29.13 15.4253 28.6099 14.4743C26.1754 10.0226 21.4416 7 16 7ZM11 16C11 13.2386 13.2386 11 16 11C18.7614 11 21 13.2386 21 16C21 18.7614 18.7614 21 16 21C13.2386 21 11 18.7614 11 16Z" fill="#E6E6E6"/>
<circle cx="16" cy="16.0002" r="2.66667" fill="#D9D9D9"/>
</svg>
