<svg width="32" height="32" viewBox="0 0 32 32" fill="none" xmlns="http://www.w3.org/2000/svg">
<g opacity="0.3">
<path d="M9.26012 23.3257C6.78077 22.0073 4.7347 19.9845 3.39005 17.5257C2.86997 16.5747 2.86998 15.4251 3.39008 14.4741C5.82463 10.0225 10.5584 7 16 7C18.743 7 21.3062 7.76806 23.4857 9.10006L19.8163 12.7694C18.8992 11.6871 17.5298 11 16 11C13.2386 11 11 13.2386 11 16C11 17.5298 11.6871 18.8992 12.7694 19.8163L9.26012 23.3257Z" fill="#E6E6E6"/>
<path d="M11.2258 24.1884C12.7194 24.714 14.3262 25 16 25C21.4416 25 26.1754 21.9775 28.6099 17.5259C29.13 16.5749 29.13 15.4253 28.6099 14.4743C27.7286 12.8627 26.5459 11.4383 25.1373 10.2769L20.8042 14.61C20.9317 15.0513 21 15.5177 21 16C21 18.7614 18.7614 21 16 21C15.5177 21 15.0513 20.9317 14.61 20.8042L11.2258 24.1884Z" fill="#E6E6E6"/>
</g>
<path d="M16 16L13.8859 18.1286C13.3388 17.5851 13 16.8321 13 16C13 14.3431 14.3431 13 16 13C16.6833 13 17.3132 13.2284 17.8176 13.6131L16 16Z" fill="#E6E6E6"/>
<path d="M25.6667 5.6665L5.66669 25.6665" stroke="#E6E6E6" stroke-width="2" stroke-linecap="round" stroke-linejoin="round"/>
</svg>
