<svg width="32" height="32" viewBox="0 0 32 32" fill="none" xmlns="http://www.w3.org/2000/svg">
<path d="M7.60428 4.64769C7.08644 3.72137 5.82673 3.54665 5.07632 4.29706L3.65659 5.71679C3.15035 6.22303 3.04203 7.00396 3.39137 7.62888L9.56166 18.6667L2.37941 14.6605C1.31291 14.0657 1.26341e-07 14.8367 7.29622e-08 16.0579L0 17.727C-2.53571e-08 18.3071 0.313996 18.8418 0.820629 19.1244L9.56223 24L5.68867 24.8181C4.44594 25.0805 3.98979 26.6168 4.88792 27.5149L5.95887 28.5859C6.34144 28.9684 6.89146 29.1318 7.42083 29.02L13.3333 27.7714V30.4C13.3333 31.2837 14.0497 32 14.9333 32H17.0667C17.9503 32 18.6667 31.2837 18.6667 30.4V27.7717L24.5796 29.0207C25.109 29.1325 25.659 28.9692 26.0416 28.5866L27.1127 27.5155C28.0108 26.6174 27.5548 25.0812 26.3121 24.8187L22.4375 24L31.1794 19.1244C31.686 18.8418 32 18.3071 32 17.727V16.0578C32 14.8366 30.6871 14.0656 29.6206 14.6605L22.438 18.6667L28.6091 7.62812C28.9584 7.0032 28.8501 6.22225 28.3438 5.716L26.9241 4.29627C26.1737 3.54586 24.914 3.72058 24.3962 4.64689L18.6667 14.8956V1.6C18.6667 0.716344 17.9503 0 17.0667 0H14.9333C14.0497 0 13.3333 0.716345 13.3333 1.6V14.8959L7.60428 4.64769Z" fill="#D9D9D9"/>
<path d="M7.60428 4.64769C7.08644 3.72137 5.82673 3.54665 5.07632 4.29706L3.65659 5.71679C3.15035 6.22303 3.04203 7.00396 3.39137 7.62888L9.56166 18.6667L2.37941 14.6605C1.31291 14.0657 1.26341e-07 14.8367 7.29622e-08 16.0579L0 17.727C-2.53571e-08 18.3071 0.313996 18.8418 0.820629 19.1244L9.56223 24L5.68867 24.8181C4.44594 25.0805 3.98979 26.6168 4.88792 27.5149L5.95887 28.5859C6.34144 28.9684 6.89146 29.1318 7.42083 29.02L13.3333 27.7714V30.4C13.3333 31.2837 14.0497 32 14.9333 32H17.0667C17.9503 32 18.6667 31.2837 18.6667 30.4V27.7717L24.5796 29.0207C25.109 29.1325 25.659 28.9692 26.0416 28.5866L27.1127 27.5155C28.0108 26.6174 27.5548 25.0812 26.3121 24.8187L22.4375 24L31.1794 19.1244C31.686 18.8418 32 18.3071 32 17.727V16.0578C32 14.8366 30.6871 14.0656 29.6206 14.6605L22.438 18.6667L28.6091 7.62812C28.9584 7.0032 28.8501 6.22225 28.3438 5.716L26.9241 4.29627C26.1737 3.54586 24.914 3.72058 24.3962 4.64689L18.6667 14.8956V1.6C18.6667 0.716344 17.9503 0 17.0667 0H14.9333C14.0497 0 13.3333 0.716345 13.3333 1.6V14.8959L7.60428 4.64769Z" fill="url(#paint0_radial_458_1219)"/>
<defs>
<radialGradient id="paint0_radial_458_1219" cx="0" cy="0" r="1" gradientUnits="userSpaceOnUse" gradientTransform="translate(16 21.7778) rotate(-90) scale(14.2222)">
<stop offset="0.32" stop-color="#FF1E00"/>
<stop offset="1" stop-color="#FFBFA4"/>
</radialGradient>
</defs>
</svg>
