<svg width="78" height="32" viewBox="0 0 78 32" fill="none" xmlns="http://www.w3.org/2000/svg">
<path d="M9.04398 11.2999C11.676 11.2999 13.804 12.8119 13.804 16.0879V25.9999H11.06V16.8439C11.06 14.9399 10.22 13.6519 8.14798 13.6519C5.79598 13.6519 4.28398 15.0799 4.28398 17.2359V25.9999H1.53998V11.7199H4.28398V13.5119H4.33998C5.09598 12.4199 6.57998 11.2999 9.04398 11.2999ZM29.8745 18.5519C29.8745 18.9439 29.8745 19.3639 29.8465 19.5879H18.8705C18.9265 21.9679 20.3265 24.1799 23.1545 24.1799C25.6745 24.1799 26.6545 22.5559 26.9065 21.6039H29.7065C28.9505 24.3479 26.8505 26.4199 23.0985 26.4199C18.5625 26.4199 16.0425 23.1999 16.0425 18.8319C16.0425 14.3519 18.7305 11.2719 23.0985 11.2719C27.4385 11.2719 29.8745 14.1279 29.8745 18.5519ZM18.8705 17.4319H27.0185C27.0185 15.1919 25.4505 13.5119 23.0145 13.5119C20.7185 13.5119 19.0385 15.0799 18.8705 17.4319ZM37.2376 23.8999C37.7136 23.8999 37.9376 23.8719 38.4136 23.7879V25.9999C37.7136 26.1399 37.2656 26.1679 36.6776 26.1679C34.3256 26.1679 32.8976 25.2719 32.8976 21.9679V13.9879H30.8256V11.7199H32.8976V7.12793H35.6416V11.7199H38.3856V13.9879H35.6416V22.0519C35.6416 23.5639 36.0616 23.8999 37.2376 23.8999Z" fill="#E6E6E6"/>
<path d="M68 6H58C52.4772 6 48 10.4772 48 16C48 21.5228 52.4772 26 58 26H68C73.5228 26 78 21.5228 78 16C78 10.4772 73.5228 6 68 6Z" fill="url(#paint0_radial_251_527)"/>
<path d="M58.534 21H56.994V10.99H58.534V21ZM64.4973 21H60.6613V10.99H64.4693C67.2413 10.99 68.9213 12.782 68.9213 16.002C68.9213 19.222 67.2693 21 64.4973 21ZM62.2013 19.67H64.3993C66.7233 19.67 67.3253 17.934 67.3253 16.002C67.3253 14.07 66.7233 12.32 64.3993 12.32H62.2013V19.67Z" fill="white"/>
<defs>
<radialGradient id="paint0_radial_251_527" cx="0" cy="0" r="1" gradientUnits="userSpaceOnUse" gradientTransform="translate(34.5 29.5) rotate(-23.9123) scale(57.9763 13.7068)">
<stop stop-color="white"/>
<stop offset="0.535" stop-color="#FD85FF"/>
<stop offset="1" stop-color="#9100FF"/>
</radialGradient>
</defs>
</svg>
